<?xml version="1.0" encoding="utf-8"?>
<!-- Generator: Adobe Illustrator 28.1.0, SVG Export Plug-In . SVG Version: 6.00 Build 0)  -->
<svg version="1.1" id="_レイヤー_1" xmlns="http://www.w3.org/2000/svg" xmlns:xlink="http://www.w3.org/1999/xlink" x="0px"
	 y="0px" viewBox="0 0 64 64" style="enable-background:new 0 0 64 64;" xml:space="preserve">
<style type="text/css">
	.st0{fill:#FFFFFF;}
</style>
<path class="st0" d="M32,30.4c-1.4-2.8-5.4-8.1-9.1-10.7c-3.5-2.5-4.9-2.1-5.7-1.7c-1,0.5-1.2,2-1.2,2.9c0,0.9,0.5,7.5,0.8,8.6
	c1.1,3.6,5,4.9,8.5,4.5c0.2,0,0.4-0.1,0.6-0.1c-0.2,0-0.4,0.1-0.6,0.1c-5.2,0.8-9.8,2.7-3.8,9.4c6.7,6.9,9.2-1.5,10.4-5.7
	c1.3,4.3,2.7,12.4,10.3,5.7c5.7-5.7,1.6-8.7-3.7-9.4c-0.2,0-0.4,0-0.6-0.1c0.2,0,0.4,0,0.6,0.1c3.6,0.4,7.4-0.8,8.5-4.5
	c0.3-1.1,0.8-7.7,0.8-8.6c0-0.9-0.2-2.5-1.2-2.9c-0.9-0.4-2.2-0.8-5.7,1.7C37.4,22.3,33.4,27.6,32,30.4z"/>
</svg>
