<?xml version="1.0" encoding="UTF-8"?>
<!--Generator: Apple Native CoreSVG 175.5-->
<!DOCTYPE svg
          PUBLIC "-//W3C//DTD SVG 1.1//EN" "http://www.w3.org/Graphics/SVG/1.1/DTD/svg11.dtd">
<svg version="1.1"
     xmlns="http://www.w3.org/2000/svg"
     xmlns:xlink="http://www.w3.org/1999/xlink"
     width="18.7891"
     height="14.8047">
  <g>
    <rect height="14.8047"
          opacity="0"
          width="18.7891"
          x="0"
          y="0" />
    <path d="M9.39062 7.85938C9.76562 7.85938 10.0859 7.67188 10.4766 7.28125L17.3516 0.359375C17 0.132812 16.4531 0.0078125 15.7188 0.0078125L3.03906 0.0078125C2.3125 0.0078125 1.77344 0.132812 1.42969 0.359375L8.30469 7.28125C8.70312 7.67188 9.01562 7.85938 9.39062 7.85938ZM0.273438 13.2031L6.25781 7.21094L0.382812 1.39844C0.132812 1.75 0 2.3125 0 3.07031L0 11.7422C0 12.3984 0.09375 12.8828 0.273438 13.2031ZM3.0625 14.8047L15.7422 14.8047C16.5625 14.8047 17.1797 14.6406 17.5625 14.3359L11.4766 8.24219L11.1484 8.57031C10.5703 9.14062 10.0156 9.40625 9.39062 9.40625C8.76562 9.40625 8.20312 9.14062 7.625 8.57031L7.30469 8.25781L1.21875 14.3359C1.61719 14.6406 2.23438 14.8047 3.0625 14.8047ZM18.5156 13.2031C18.6875 12.8828 18.7891 12.3984 18.7891 11.7422L18.7891 3.07031C18.7891 2.3125 18.6562 1.75 18.4062 1.39844L12.5234 7.21094Z"
          fill="#00d4d4" />
  </g>
</svg>