<?xml version="1.0" encoding="utf-8"?>
<!-- Generator: Adobe Illustrator 27.0.1, SVG Export Plug-In . SVG Version: 6.00 Build 0)  -->
<svg version="1.1" id="a" xmlns="http://www.w3.org/2000/svg" xmlns:xlink="http://www.w3.org/1999/xlink" x="0px" y="0px"
	 viewBox="0 0 64 64" style="enable-background:new 0 0 64 64;" xml:space="preserve">
<style type="text/css">
	.st0{fill-rule:evenodd;clip-rule:evenodd;fill:#FFFFFF;}
</style>
<path class="st0" d="M32,16c-8.8,0-16,7.2-16,16c0,7.1,4.6,13.1,10.9,15.2c0.8,0.2,1.1-0.3,1.1-0.8c0-0.4,0-1.4,0-2.7
	c-4.5,1-5.4-2.2-5.4-2.2c-0.7-1.8-1.8-2.3-1.8-2.3c-1.5-1,0.1-1,0.1-1c1.6,0.1,2.5,1.7,2.5,1.7c1.4,2.4,3.8,1.7,4.7,1.3
	c0.1-1,0.6-1.7,1-2.1c-3.5-0.4-7.3-1.8-7.3-7.9c0-1.8,0.6-3.2,1.6-4.3c-0.2-0.4-0.7-2,0.2-4.2c0,0,1.3-0.4,4.4,1.6
	c1.3-0.4,2.6-0.5,4-0.5c1.4,0,2.7,0.2,4,0.5c3-2.1,4.4-1.6,4.4-1.6c0.9,2.2,0.3,3.8,0.2,4.2c1,1.1,1.7,2.5,1.7,4.3
	c0,6.2-3.7,7.5-7.3,7.9c0.6,0.5,1.1,1.5,1.1,3c0,2.1,0,3.9,0,4.4c0,0.4,0.3,0.9,1.1,0.8C43.4,45.1,48,39.1,48,32
	C48,23.1,40.9,16,32,16"/>
</svg>
