<?xml version="1.0" encoding="utf-8"?>
<!-- Generator: Adobe Illustrator 27.7.0, SVG Export Plug-In . SVG Version: 6.00 Build 0)  -->
<svg version="1.1" id="a" xmlns="http://www.w3.org/2000/svg" xmlns:xlink="http://www.w3.org/1999/xlink" x="0px" y="0px"
	 viewBox="0 0 64 64" style="enable-background:new 0 0 64 64;" xml:space="preserve">
<style type="text/css">
	.st0{fill:#FFFFFF;}
</style>
<path class="st0" d="M46.9,25.8c-0.1-1.5-0.3-2.8-0.7-3.6c-0.3-0.9-0.9-1.8-1.7-2.7c-0.8-0.9-1.7-1.3-2.7-1.8
	c-0.9-0.3-2.1-0.7-3.6-0.7c-1.6,0-2.1,0-6.2,0s-4.6,0-6.2,0.1c-1.5,0.1-2.8,0.3-3.6,0.7c-0.9,0.3-1.8,0.9-2.7,1.8
	c-0.9,0.9-1.3,1.7-1.8,2.7c-0.3,0.9-0.7,2.1-0.7,3.6c0,1.5,0,2.1,0,6.1s0,4.6,0.1,6.2c0.1,1.5,0.3,2.8,0.7,3.6
	c0.3,0.9,0.9,1.8,1.8,2.7s1.7,1.3,2.7,1.7c0.9,0.3,2.1,0.7,3.6,0.7C27.4,47,28,47,32,47s4.6,0,6.2-0.1s2.8-0.3,3.6-0.7
	s1.8-0.9,2.7-1.7c0.9-0.9,1.3-1.7,1.7-2.7c0.3-0.9,0.7-2.1,0.7-3.6C47,36.6,47,36.1,47,32S47,27.4,46.9,25.8z M44.2,38.1
	c-0.1,1.5-0.3,2.2-0.4,2.8c-0.3,0.8-0.6,1.2-1.1,1.7c-0.6,0.4-1,0.9-1.7,1.1c-0.6,0.2-1.3,0.4-2.8,0.4c-1.5,0.1-2.1,0.1-6.1,0.1
	s-4.5,0-6.1-0.1c-1.5-0.1-2.2-0.3-2.8-0.4c-0.8-0.3-1.2-0.6-1.7-1.1s-0.9-1-1.1-1.7c-0.2-0.6-0.4-1.3-0.4-2.8c0-1.6,0-2.1,0-6.1
	s0-4.5,0.1-6.1c0.1-1.5,0.3-2.2,0.4-2.8c0.3-0.8,0.6-1.2,1.1-1.7c0.6-0.6,1-0.9,1.7-1.1c0.6-0.2,1.3-0.4,2.8-0.4
	c1.5-0.1,2.1-0.1,6.1-0.1s4.5,0,6.1,0.1c1.5,0.1,2.2,0.3,2.8,0.4c0.8,0.3,1.2,0.6,1.7,1.1c0.6,0.6,0.9,1,1.1,1.7
	c0.2,0.6,0.4,1.3,0.4,2.8c0.1,1.5,0.1,2.1,0.1,6.1S44.3,36.5,44.2,38.1z M32,24.3c-4.2,0-7.7,3.4-7.7,7.7s3.4,7.7,7.7,7.7
	s7.7-3.4,7.7-7.7S36.2,24.3,32,24.3z M32,37c-2.8,0-5-2.2-5-5s2.2-5,5-5s5,2.2,5,5S34.8,37,32,37z M40,22.2c-1,0-1.8,0.9-1.8,1.8
	s0.9,1.8,1.8,1.8s1.8-0.9,1.8-1.8C41.7,22.9,41.1,22.2,40,22.2z"/>
</svg>
