<?xml version="1.0" encoding="utf-8"?>
<!-- Generator: Adobe Illustrator 27.0.1, SVG Export Plug-In . SVG Version: 6.00 Build 0)  -->
<svg version="1.1" id="レイヤー_1" xmlns="http://www.w3.org/2000/svg" xmlns:xlink="http://www.w3.org/1999/xlink" x="0px"
	 y="0px" viewBox="0 0 64 64" style="enable-background:new 0 0 64 64;" xml:space="preserve">
<style type="text/css">
	.st0{fill-rule:evenodd;clip-rule:evenodd;fill:url(#Path_00000155864178730867946990000015613361987699768486_);}
	.st1{fill-rule:evenodd;clip-rule:evenodd;fill:#FFFFFF;}
</style>
<g>
	
		<radialGradient id="Path_00000019657256182759154220000003202214309811123117_" cx="-1052.7948" cy="546.5049" r="4.358388e-02" gradientTransform="matrix(800 0 0 799.9985 842258 -437155.1562)" gradientUnits="userSpaceOnUse">
		<stop  offset="0" style="stop-color:#0099FF"/>
		<stop  offset="0.6098" style="stop-color:#A033FF"/>
		<stop  offset="0.9348" style="stop-color:#FF5280"/>
		<stop  offset="1" style="stop-color:#FF7061"/>
	</radialGradient>
	
		<path id="Path" style="fill-rule:evenodd;clip-rule:evenodd;fill:url(#Path_00000019657256182759154220000003202214309811123117_);" d="
		M32,16c-9,0-16,6.6-16,15.5c0,4.7,1.9,8.7,5,11.5c0.3,0.2,0.4,0.6,0.4,0.9l0.1,2.8c0,0.9,1,1.5,1.8,1.1l3.2-1.4
		c0.3-0.1,0.6-0.1,0.9-0.1c1.5,0.4,3,0.6,4.6,0.6c9,0,16-6.6,16-15.5S41,16,32,16z"/>
	<path id="Path_00000070108755253110818500000003575760216143696777_" class="st1" d="M22.4,36.1l4.7-7.5c0.7-1.2,2.3-1.5,3.5-0.6
		l3.7,2.8c0.3,0.3,0.8,0.3,1.2,0l5-3.8c0.7-0.5,1.6,0.3,1.1,1l-4.7,7.5c-0.7,1.2-2.3,1.5-3.5,0.6l-3.7-2.8c-0.3-0.3-0.8-0.3-1.2,0
		l-5,3.8C22.8,37.6,21.9,36.8,22.4,36.1z"/>
</g>
</svg>
