<?xml version="1.0" encoding="utf-8"?>
<!-- Generator: Adobe Illustrator 27.7.0, SVG Export Plug-In . SVG Version: 6.00 Build 0)  -->
<svg version="1.1" id="a" xmlns="http://www.w3.org/2000/svg" xmlns:xlink="http://www.w3.org/1999/xlink" x="0px" y="0px"
	 viewBox="0 0 64 64" style="enable-background:new 0 0 64 64;" xml:space="preserve">
<style type="text/css">
	.st0{fill:#FFFFFF;}
</style>
<g>
	<path class="st0" d="M18.5,19.5c-0.5,0-1,0.1-1.5,0.3c-0.9,0.3-1.5,0.8-2.1,1.6c-0.5,0.7-0.8,1.6-0.8,2.5v16.3
		c0,1.2,0.4,2.2,1.3,3.1c0.9,0.9,1.9,1.3,3.1,1.3c1.2,0,2.2-0.4,3.1-1.3c0.9-0.9,1.3-1.9,1.3-3.1v-2.9c0-0.6,0.7-0.5,1,0
		c0.6,1.1,1.9,2,3.5,2l0,0c1.5,0,2.8-0.8,3.5-2c0.2-0.3,1-0.8,1,0v2.9c0,1.2,0.4,2.2,1.3,3.1c0.9,0.9,1.9,1.3,3.1,1.3
		c1.2,0,2.2-0.4,3.1-1.3c0.9-0.9,1.3-1.9,1.3-3.1V23.9c0-0.9-0.3-1.8-0.8-2.5c-0.5-0.8-1.2-1.3-2-1.6c-0.5-0.2-1-0.3-1.5-0.3
		c-1.3,0-2.5,0.5-3.4,1.6l-4.4,5.2c-0.1,0.1-0.4,0.6-1.1,0.6c-0.7,0-1-0.6-1.1-0.6l-4.5-5.2C21,20,19.9,19.5,18.5,19.5z"/>
	<path class="st0" d="M46,19.5c-1,0-1.9,0.4-2.7,1.1c-0.7,0.7-1.1,1.6-1.1,2.6c0,1,0.4,1.9,1.1,2.7C44.1,26.6,45,27,46,27
		s1.9-0.4,2.7-1.1c0.7-0.7,1.1-1.6,1.1-2.7c0-1-0.4-1.9-1.1-2.6C48,19.9,47.1,19.5,46,19.5z"/>
	<path class="st0" d="M46.1,27.8c-1,0-1.9,0.4-2.7,1.1c-0.7,0.8-1.1,1.6-1.1,2.7v9.2c0,1,0.4,1.9,1.1,2.7c0.8,0.7,1.6,1.1,2.7,1.1
		s1.9-0.4,2.6-1.1c0.7-0.7,1.1-1.6,1.1-2.7v-9.2c0-1-0.4-1.9-1.1-2.7C48,28.1,47.1,27.8,46.1,27.8z"/>
</g>
</svg>
