<?xml version="1.0" encoding="utf-8"?>
<!-- Generator: Adobe Illustrator 27.0.1, SVG Export Plug-In . SVG Version: 6.00 Build 0)  -->
<svg version="1.1" id="a" xmlns="http://www.w3.org/2000/svg" xmlns:xlink="http://www.w3.org/1999/xlink" x="0px" y="0px"
	 viewBox="0 0 64 64" style="enable-background:new 0 0 64 64;" xml:space="preserve">
<style type="text/css">
	.st0{fill:#FFFFFF;}
</style>
<g>
	<path class="st0" d="M22.9,24c4.3,0,7.8,4.9,7.8,10.9s-3.5,10.9-7.8,10.9s-7.8-4.9-7.8-10.9S18.5,24,22.9,24z M24.6,26.6
		c-1.7,0-2.9,1.9-2.9,4.2S23,35,24.6,35s2.9-1.9,2.9-4.2S26.2,26.6,24.6,26.6z"/>
	<path class="st0" d="M40.8,18.2c4.4,0,8,5.1,8,11.2s-3.6,11.2-8,11.2s-8-5.1-8-11.2S36.4,18.2,40.8,18.2z M42.5,20.9
		c-1.7,0-3.1,1.9-3.1,4.3s1.4,4.3,3.1,4.3c1.7,0,3.1-1.9,3.1-4.3S44.2,20.9,42.5,20.9z"/>
</g>
</svg>
