<svg width="200" height="200" viewBox="0 0 200 200" xmlns="http://www.w3.org/2000/svg">
  <path
    d="M167.251 112.098L154.57 85.2152C154.604 84.4113 154.633 83.6074 154.633 82.7986C154.633 49.0019 127.238 21.6025 93.4411 21.6025C59.6394 21.6025 32.245 49.0019 32.245 82.7986C32.245 101.8 40.9013 118.782 54.4955 130.008V151.636C54.4955 153.747 55.7587 155.656 57.6966 156.479L108.38 177.978C110.002 178.667 111.868 178.5 113.337 177.528C114.811 176.552 115.692 174.906 115.692 173.145V154.814C115.692 151.914 118.046 149.555 120.946 149.555H146.905C149.809 149.555 152.164 147.201 152.164 144.301V128.496C152.164 126.482 153.312 124.644 155.126 123.764L164.796 119.07C167.385 117.806 168.48 114.701 167.251 112.098ZM93.8815 135.114C91.2401 135.114 88.9528 133.64 87.7805 131.472H99.9776C98.8099 133.64 96.5179 135.114 93.8815 135.114ZM106.236 121.639C106.236 122.572 105.763 123.39 105.05 123.878C105.763 124.367 106.236 125.185 106.236 126.118C106.236 127.616 105.021 128.831 103.523 128.831H84.1101C82.6123 128.831 81.3971 127.616 81.3971 126.118C81.3971 125.185 81.866 124.367 82.5838 123.878C81.866 123.39 81.3971 122.572 81.3971 121.639C81.3971 120.715 81.8614 119.897 82.5694 119.409C81.8611 118.921 81.3971 118.108 81.3971 117.184C81.3971 115.686 82.6126 114.471 84.1101 114.471H103.523C105.021 114.471 106.236 115.686 106.236 117.184C106.236 118.108 105.767 118.921 105.064 119.409C105.767 119.897 106.236 120.716 106.236 121.639ZM109.572 99.3024C105.059 102.293 104.652 104.518 104.652 110.098H82.9761C82.9761 104.518 82.574 102.293 78.0569 99.3024C70.305 94.1823 65.1947 85.3922 65.1947 75.4105C65.1947 59.6056 78.0092 46.7911 93.8141 46.7911C109.619 46.7911 122.434 59.6056 122.434 75.4105C122.434 85.3922 117.323 94.1823 109.572 99.3024Z"
    fill="#D40000" />
</svg>