<svg width="200" height="200" viewBox="0 0 200 200" xmlns="http://www.w3.org/2000/svg">
  <path
    d="M183.503 113.726L155.983 71.6157C156.655 70.5548 157.059 69.3058 157.059 67.9564C157.059 64.1516 153.962 61.0668 150.142 61.0668H111.478C109.122 57.1853 104.888 54.5659 100.001 54.5659C95.1155 54.5659 90.8796 57.1853 88.523 61.0668H49.86C46.0397 61.0668 42.9424 64.1519 42.9424 67.9564C42.9424 69.3058 43.3462 70.5548 44.0197 71.6157L16.4974 113.726H14L15.0068 117.968C18.7461 133.71 32.9079 145.428 49.8596 145.434C66.8097 145.428 80.9742 133.71 84.7135 117.968L85.7203 113.726H83.2216L57.8106 74.8461H88.523C90.8783 78.7275 95.1155 81.3496 100.001 81.3496C104.888 81.3496 109.125 78.7275 111.478 74.8461H142.191L116.778 113.726H114.282L115.288 117.967C119.025 133.71 133.193 145.428 150.142 145.434C167.099 145.428 181.258 133.708 184.993 117.967L186 113.726H183.503ZM74.9679 113.726H24.7527L49.86 75.3095L74.9679 113.726ZM125.035 113.726L150.142 75.3095L175.252 113.726H125.035Z"
    fill="#D40000" />
</svg>