<svg xmlns="http://www.w3.org/2000/svg" viewBox="0 0 1800 512">
  <path
    d="M295.58,321.97l-105.55,105.55-105.55-105.55,105.55-105.55,105.55,105.55ZM321.97,84.48l-105.55,105.55,105.55,105.55,105.55-105.55-105.55-105.55ZM507.96,334.4h57.8l12.2-15.8v-7.3l-69-52.1v-20.8l25.1-30h63.8l2.5,20h-54.8l-12.2,15.8v7.3l69,52.1v20.8l-25.1,30h-66.8l-2.5-20ZM628.66,319.4v-34.2l32.2-34.9h34.5l31.3,34.9v34.2l-32.3,35h-33.5l-32.2-35ZM685.56,335.4l20-21.7v-22.7l-20-21.7h-15.8l-20,21.7v22.7l20,21.7h15.8ZM760.06,324.1v-107.3l4.9,4.6h-39.7l2.5-20h42.1l12.3,14v101.5l15,17.6h31.9l-2.5,20h-40.8l-25.7-30.4ZM867.66,265.7l5.2,4.6h-49.1l2.5-20h51.6l12.3,14v90.1h-22.5v-88.7ZM856.66,212l17.8-16.9,17.8,16.9-17.8,17.1-17.8-17.1ZM1014.26,268.3h-40.5l-19.9,20.3v34.4l15,12.7,45.4-10.1v14.4l-52.6,16.9-30.3-27.9v-47.4l32.4-31.2h50.5v17.9ZM1004.56,339.2v-76l-1.3-4.6v-53.2l22.8-4v153h-15.4l-6.1-15.2ZM1129.86,208.4h23.2v146h-23.2v-146ZM1138.46,284.9h44.5l20-23.3v-16.3l-19.5-16.8h-45v-20.1h55l32.1,29.3v31.4l-32,32.9h-55.1v-17.1ZM1247.66,319.4v-34.2l32.2-34.9h34.5l31.3,34.9v34.2l-32.3,35h-33.5l-32.2-35ZM1304.56,335.4l20-21.7v-22.7l-20-21.7h-15.8l-20,21.7v22.7l20,21.7h15.8ZM1412.65,265.7l5.2,4.6h-49.1l2.5-20h51.6l12.3,14v90.1h-22.5v-88.7ZM1401.65,212l17.8-16.9,17.8,16.9-17.8,17.1-17.8-17.1ZM1471.25,250.3h16.7l5.8,14.1v90h-22.5v-104.1ZM1539.45,280.5l-12.5-12.6-46.5,10.1v-13.2l54.7-16.9,26.9,27.3v79.2h-22.6v-73.9ZM1586.45,260.8h97.7v18h-97.7v-18ZM1610.65,324.1v-97.3l22.1-4v94.1l15,18.6h36.4v19h-47.8l-25.7-30.4Z" />
</svg>